HIERARCHY
ROOT Hips
{
  OFFSET 196.326 95.9168 97.7182
  CHANNELS 6 Xposition Yposition Zposition Zrotation Xrotation Yrotation
  JOINT LeftUpLeg
  {
    OFFSET 8.64259 1.95398 -2.38835
    CHANNELS 3 Zrotation Xrotation Yrotation
    JOINT LeftLeg
    {
      OFFSET 43.7702 0 0
      CHANNELS 3 Zrotation Xrotation Yrotation
      JOINT LeftFoot
      {
        OFFSET 40.6238 0 0
        CHANNELS 3 Zrotation Xrotation Yrotation
        JOINT LeftToeBase
        {
          OFFSET 12.7242 0 0
          CHANNELS 3 Zrotation Xrotation Yrotation
          End Site
          {
            OFFSET 0 0 0
          }
        }
      }
    }
  }
  JOINT RightUpLeg
  {
    OFFSET -8.2249 1.95398 -2.59336
    CHANNELS 3 Zrotation Xrotation Yrotation
    JOINT RightLeg
    {
      OFFSET 43.5653 0 0
      CHANNELS 3 Zrotation Xrotation Yrotation
      JOINT RightFoot
      {
        OFFSET 40.6238 0 0
        CHANNELS 3 Zrotation Xrotation Yrotation
        JOINT RightToeBase
        {
          OFFSET 12.7242 0 0
          CHANNELS 3 Zrotation Xrotation Yrotation
          End Site
          {
            OFFSET 0 0 0
          }
        }
      }
    }
  }
  JOINT Spine
  {
    OFFSET 0.165834 0.87714 6.61349
    CHANNELS 3 Zrotation Xrotation Yrotation
    JOINT Spine1
    {
      OFFSET 7.38963 1.71661e-005 0
      CHANNELS 3 Zrotation Xrotation Yrotation
      JOINT Spine2
      {
        OFFSET 11.9445 1.14441e-005 0
        CHANNELS 3 Zrotation Xrotation Yrotation
        JOINT Spine3
        {
          OFFSET 14.7254 4.19617e-005 0
          CHANNELS 3 Zrotation Xrotation Yrotation
          JOINT Spine4
          {
            OFFSET 10.9679 0 0
            CHANNELS 3 Zrotation Xrotation Yrotation
            JOINT RightShoulder
            {
              OFFSET 2.46616 -1.6653 3.69651
              CHANNELS 3 Zrotation Xrotation Yrotation
              JOINT RightArm
              {
                OFFSET 13.0012 0 0
                CHANNELS 3 Zrotation Xrotation Yrotation
                JOINT RightForeArm
                {
                  OFFSET 28.7848 1.52588e-005 0
                  CHANNELS 3 Zrotation Xrotation Yrotation
                  JOINT RightHand
                  {
                    OFFSET 26.5688 1.52588e-005 0
                    CHANNELS 3 Zrotation Xrotation Yrotation
                    End Site
                    {
                      OFFSET 0 0 0
                    }
                  }
                }
              }
            }
            JOINT LeftShoulder
            {
              OFFSET 2.38034 -1.29275 -3.75231
              CHANNELS 3 Zrotation Xrotation Yrotation
              JOINT LeftArm
              {
                OFFSET 16.3182 6.10351e-005 0
                CHANNELS 3 Zrotation Xrotation Yrotation
                JOINT LeftForeArm
                {
                  OFFSET 27.0901 0 0
                  CHANNELS 3 Zrotation Xrotation Yrotation
                  JOINT LeftHand
                  {
                    OFFSET 24.5451 1.52588e-005 0
                    CHANNELS 3 Zrotation Xrotation Yrotation
                    End Site
                    {
                      OFFSET 0 0 0
                    }
                  }
                }
              }
            }
            JOINT Neck
            {
              OFFSET 5.0226 -0.0266342 0
              CHANNELS 3 Zrotation Xrotation Yrotation
              JOINT Head
              {
                OFFSET 6.69363 2.86102e-005 0
                CHANNELS 3 Zrotation Xrotation Yrotation
                End Site
                {
                  OFFSET 0 0 0
                }
              }
            }
          }
        }
      }
    }
  }
}
MOTION
Frames:	14
Frame Time:	0.0416667
16.9294 81.7324 -18.7433 -75.9293 -51.8282 -81.3544 -170.921 29.2934 107.838 -49.4585 21.0015 0.756465 54.7281 9.27695 27.24 68.7031 38.6171 -7.78582 162.475 62.9147 97.6984 -70.6663 12.4235 1.36904 61.6498 -3.15838 -1.69607 52.1145 2.81163 9.5125 -0.66788 8.7553 -88.7667 9.36529 -0.777681 2.50142 -2.3079 -0.666843 2.53319 -24.8298 -1.49334 2.15231 -4.8171 -1.49333 2.15232 78.5939 -50.388 -117.802 29.0494 -15.7367 36.3528 -13.5288 -21.4193 -46.2994 13.3467 0.513573 3.93999 -101.739 -35.802 55.0757 -8.16421 -10.195 -10.2396 20.3951 -3.20234 -92.0567 22.5061 2.59247 7.75247 7.80126 -19.2664 -4.5047 9.44473 -19.3056 -9.36534 
11.3069 83.2345 -15.1716 -74.7045 -48.3929 -83.0945 -168.482 20.5552 106.746 -40.111 20.3445 0.32582 54.4461 5.61243 19.6596 65.4013 37.8772 -3.09508 161.627 63.8173 95.0482 -67.6359 11.6904 2.74888 57.6323 -1.59893 -0.786716 48.6138 2.56882 12.1509 -0.841371 8.33888 -88.9299 10.2034 -1.18786 2.22706 -1.46905 -1.0887 2.27715 -23.998 -1.80218 1.76729 -3.98536 -1.80215 1.76729 79.112 -49.2479 -117.514 33.0496 -15.7029 44.1714 -14.2214 -19.5395 -47.9572 20.0521 0.446171 1.53929 -100.676 -36.5052 57.1855 -12.1685 -7.38309 -5.77118 21.8034 -5.15139 -103.181 20.6888 2.24839 7.04977 7.06197 -16.9837 -2.1997 10.4282 -17.3347 -7.27067 
4.49078 85.1977 -11.7355 -73.8067 -44.9571 -86.2046 -166.983 9.62978 105.213 -26.1126 18.1667 0.254075 46.1362 -4.12885 7.00721 64.6494 39.1246 0.79879 162.417 63.2924 91.3983 -65.2427 12.0499 4.06341 57.136 -0.962363 -0.368892 50.0067 3.32104 16.0106 -0.948053 7.94362 -88.9399 10.9962 -1.39621 2.24257 -0.676069 -1.29618 2.30181 -23.2072 -2.00555 1.71944 -3.19452 -2.00555 1.71944 78.6917 -49.0268 -118.232 36.212 -14.3622 49.206 -12.1143 -18.0577 -47.4151 22.7181 0.105384 -0.834674 -99.8577 -37.1234 58.8362 -15.1587 -2.11607 0.18304 23.1341 -8.26658 -106.525 19.9543 2.22218 7.31012 5.06078 -15.1024 -0.0855974 11.1039 -15.7262 -5.55769 
-2.94365 86.9864 -9.05373 -72.5144 -43.0958 -90.0594 -167.665 -1.99105 102.084 -7.11449 12.6922 0.728778 28.3498 -12.8134 -5.61092 53.5146 29.3207 6.5704 163.827 62.0844 86.9571 -64.5699 14.0238 4.88365 59.4343 -1.17433 -0.526149 55.0632 3.92564 13.3896 -1.15686 7.69342 -88.8863 11.5022 -1.78088 2.40188 -0.169894 -1.67346 2.47788 -22.7042 -2.4203 1.75576 -2.69159 -2.42029 1.75576 78.5928 -49.4457 -118.2 36.131 -11.1281 49.688 -11.4271 -16.5199 -45.5371 22.6862 0.202561 -0.620073 -98.8406 -37.3336 60.6131 -19.4721 2.58779 5.08421 22.1615 -8.56277 -105.04 18.2553 1.86223 6.31436 5.34674 -13.5208 1.5361 11.5135 -14.0699 -2.90258 
-10.6011 88.1357 -6.75569 -69.6399 -39.6102 -90.4861 -171.088 -2.32392 99.7376 -10.5382 16.5304 1.56734 29.4442 -13.1193 -0.657666 30.9081 2.52246 -0.926328 163.668 59.672 87.8809 -63.887 17.4665 5.40403 63.6089 -2.31109 -1.24851 49.0189 2.79929 13.5281 -1.07626 7.48747 -89.173 11.9114 -1.75049 1.8379 0.240258 -1.66793 1.91314 -22.299 -2.22189 1.22682 -2.28635 -2.22188 1.22682 79.6071 -49.6714 -116.604 34.6392 -9.16943 46.474 -11.8022 -15.7659 -44.93 18.1426 0.104002 -0.85527 -99.2987 -37.6898 60.0234 -23.9683 3.84188 9.8598 21.1196 -6.37285 -100.551 15.5616 1.56383 6.08394 7.4857 -11.9842 4.20454 12.1895 -12.8459 -1.29766 
-17.6946 88.0556 -4.81306 -68.3848 -34.5614 -91.8938 -173.165 1.02817 96.5312 -22.5511 16.8415 1.72576 36.6171 -9.37881 4.69661 34.8398 6.74295 -5.37352 165.595 55.729 88.9618 -63.6382 19.2417 5.20649 67.7857 -3.17705 -1.69861 48.7382 3.53542 19.637 -0.862112 7.48222 -89.4599 11.9168 -1.45982 1.23394 0.24597 -1.40409 1.29697 -22.2937 -1.76315 0.738096 -2.28107 -1.76315 0.738104 79.6183 -51.4739 -115.87 30.3565 -10.3107 41.2665 -11.5169 -15.41 -45.2274 10.0706 -0.157565 -1.71531 -99.9918 -38.9327 59.4657 -28.3595 4.52211 13.2104 21.9484 -4.67205 -90.2947 19.6039 1.84867 5.6722 10.0363 -10.2721 6.86055 12.6178 -11.5094 0.615502 
-24.6413 87.0818 -3.25436 -66.9528 -27.8691 -91.5634 -173.487 7.5341 95.1415 -38.965 18.0841 1.16933 40.5639 -8.32002 5.57826 38.1175 10.1027 -4.48294 169.102 51.1296 92.2992 -62.8911 19.5149 3.89975 78.3632 -5.61495 -2.55947 43.5093 2.42404 22.2802 -0.45945 7.52609 -89.8174 11.8235 -0.827726 0.45225 0.152714 -0.807068 0.488237 -22.3844 -0.925376 0.182572 -2.37175 -0.925385 0.182561 78.7401 -53.5127 -116.328 24.8758 -11.3755 34.1049 -11.4153 -14.9314 -46.2728 0.855247 -0.258502 -1.58854 -100.296 -40.6082 59.7408 -31.2497 4.91336 16.0953 18.6213 0.0694475 -82.7306 21.7792 3.912 14.1815 12.1368 -8.40844 8.59782 13.1573 -10.0036 1.77797 
-30.9228 86.4033 -2.30664 -66.9771 -22.1096 -91.7246 -173.072 16.9471 94.4838 -56.805 18.9193 0.192415 40.2172 -9.07443 5.77555 42.7606 13.958 -10.6688 171.899 46.7921 94.8715 -62.2656 19.4005 2.13192 78.0055 -5.67391 -2.59255 51.7143 4.36597 20.8976 -0.0942328 7.88081 -90.0412 11.112 -0.206537 -0.0614044 -0.558981 -0.20903 -0.0522485 -23.0942 -0.17855 -0.120633 -3.08156 -0.178535 -0.120638 78.1949 -54.1096 -116.862 20.975 -11.301 24.4776 -12.1456 -14.7771 -48.7693 -10.6295 -0.58594 0.595003 -101.038 -41.5715 59.007 -34.5077 6.84329 18.4047 10.0325 1.96717 -67.7635 30.8762 2.7888 5.11817 16.0858 -6.95928 8.52151 13.5971 -8.56318 3.16395 
-36.9224 85.7894 -1.43807 -67.2251 -16.3117 -91.4375 -170.969 29.4433 94.3956 -74.1702 18.1066 -0.34716 41.349 -8.20472 8.30038 39.289 10.6777 -12.3095 173.932 40.5138 97.3191 -59.2363 18.5687 1.12263 81.2249 -7.26246 -3.03417 53.8617 4.66012 19.2857 0.29633 8.22486 -90.1161 10.4245 0.537107 -0.276821 -1.24635 0.524386 -0.300189 -23.7824 0.595479 -0.102586 -3.76971 0.595468 -0.10259 77.2766 -52.9867 -118.622 20.0998 -10.0318 15.779 -15.1808 -11.5829 -57.3386 -19.9899 -1.00051 1.19972 -101.117 -41.7505 58.965 -38.3313 8.01249 21.7207 0.97628 -1.27392 -54.7905 31.0062 2.19453 3.22824 19.9486 -5.56809 7.58231 12.6564 -7.15838 3.40514 
-43.5874 85.4269 -0.853179 -65.5299 -11.559 -91.7817 -167.651 43.8987 92.6355 -84.4941 15.4732 -0.0893746 42.9353 -7.48774 7.98294 38.1459 9.6404 -12.6207 175.553 33.4322 97.8411 -52.094 20.271 0.899492 88.835 -10.3838 -3.6336 51.0078 4.58105 23.5702 0.700756 8.0975 -90.0327 10.677 1.38045 -0.19077 -0.993235 1.37076 -0.251352 -23.5339 1.37397 0.233033 -3.52127 1.37397 0.233027 80.1816 -49.2317 -115.93 24.1797 -9.95034 8.59879 -23.5809 -6.85408 -71.9205 -23.0515 -1.13487 1.34771 -100.54 -41.467 59.7403 -43.7263 11.5612 28.5372 -0.882535 -0.0461517 -49.4876 29.6618 1.8534 2.39369 21.1542 -4.94704 7.85825 11.4774 -6.677 3.87465 
-51.2057 86.0266 -0.33712 -64.0658 -6.82435 -96.1239 -159.682 54.0584 84.6601 -84.58 14.7362 -0.700318 45.6854 -6.28886 8.6649 34.1774 6.10617 -11.3035 177.767 27.6987 93.8282 -46.2755 15.6951 -1.3856 85.4553 -9.52848 -3.60568 55.5933 5.95246 24.04 1.09053 7.90498 -89.3973 11.0543 2.45028 0.963506 -0.61465 2.49037 0.85467 -23.1608 2.04748 1.65556 -3.14817 2.04746 1.65557 83.4279 -46.4702 -112.052 27.1978 -13.5648 1.10187 -30.2356 1.30066 -86.4343 -22.6918 -1.39992 2.96418 -98.4238 -39.9255 62.4369 -50.6228 13.8507 38.3597 -1.62428 0.0659309 -54.0449 25.658 1.63405 2.53126 20.3073 -5.67148 6.31089 12.7038 -6.61065 4.94894 
-60.02 87.8834 0.555423 -65.1629 -3.28411 -98.0133 -158.464 58.7147 82.2418 -76.3286 16.6887 -2.02738 47.9904 -5.72545 9.71828 37.3108 9.11423 -7.91009 179.073 18.2945 90.7554 -38.4905 5.07139 -3.35675 73.3471 -5.84644 -2.81381 59.2226 6.61192 22.253 1.51005 7.88514 -89.1426 11.0832 3.4036 1.37757 -0.58382 3.46092 1.22628 -23.1397 2.83221 2.33725 -3.12707 2.83223 2.33725 85.2989 -43.1191 -110.3 29.0777 -16.5187 -2.99596 -34.786 10.6804 -96.3465 -27.002 -2.09922 5.24471 -96.8939 -37.8556 64.0707 -57.5665 14.0219 46.2945 -1.52193 0.0457892 -58.6868 25.2962 0.810255 -0.724861 19.0108 -5.99178 5.7384 11.3405 -6.8626 4.26291 
-69.7362 90.1239 1.88021 -66.3464 -2.37831 -98.4572 -162.333 59.8534 83.4489 -61.1779 16.88 -3.60811 47.8731 -7.11264 7.58531 39.2095 11.0882 -6.01533 178.5 9.47264 87.9761 -29.4055 -3.14841 -3.88849 52.4403 0.24914 0.593536 57.2857 6.70216 26.9898 1.7214 7.80275 -89.0402 11.245 3.87243 1.52756 -0.42087 3.93589 1.35543 -22.9836 3.23433 2.62149 -2.9709 3.2343 2.62146 85.9345 -41.5099 -109.837 29.6647 -18.1465 -3.41826 -36.9006 17.0336 -104.183 -24.7302 -2.18286 6.51187 -96.8478 -35.7377 63.2461 -62.6649 13.8487 51.1057 -1.61202 -0.466956 -62.0412 24.0872 0.338096 -2.54039 17.5641 -6.7772 4.79098 9.94824 -7.36881 3.99373 
-80.1357 92.3037 3.70871 -66.4661 -1.4224 -98.194 -166.609 57.6688 85.2371 -41.1618 18.562 -5.20522 46.5711 -8.58026 5.66383 38.2043 10.2478 -3.59442 177.942 2.94001 86.1873 -22.3315 -7.82036 -4.68994 36.484 4.65605 5.13318 36.0567 1.01773 17.7732 1.86087 7.61616 -89.0431 11.6171 4.1498 1.47635 -0.0478007 4.21073 1.29198 -22.6169 3.5142 2.65629 -2.60424 3.51422 2.65628 86.7646 -40.0677 -108.96 30.0602 -18.7512 -2.14966 -34.4114 18.9407 -107.922 -26.2386 -2.60093 7.73019 -97.094 -34.8868 62.4458 -64.9777 12.9542 52.4289 -2.67719 -1.74116 -64.502 25.0496 0.314083 -2.71069 17.3995 -6.67742 5.32897 7.35849 -7.70455 2.5068 
